M48
;Layer_Color=9474304
;FILE_FORMAT=2:4
INCH,LZ
;TYPE=PLATED
T1F00S00C0.0276
T2F00S00C0.0354
%
T01
X00264Y010606
X003624
X004609
Y01159
X003624
X00264
T02
X00064Y00065
Y00165
X00164
Y00065
X00264
Y00165
X00464
Y00065
X00564
Y00165
X00664
Y00065
X00764
Y00165
X004641Y004699
X003644Y00472
X002641Y004699
X00064Y00425
Y00325
Y00731
Y00831
M30
