G04 Layer_Physical_Order=1*
G04 Layer_Color=255*
%FSLAX23Y23*%
%MOIN*%
G70*
G01*
G75*
%ADD10R,0.394X0.236*%
%ADD11R,0.057X0.106*%
%ADD12R,0.067X0.043*%
%ADD13C,0.031*%
%ADD14C,0.010*%
%ADD15R,0.551X0.339*%
%ADD16R,0.187X0.182*%
%ADD17O,0.071X0.098*%
%ADD18R,0.059X0.059*%
%ADD19C,0.059*%
%ADD20R,0.059X0.059*%
%ADD21C,0.050*%
D10*
X365Y1107D02*
D03*
D11*
X636Y358D02*
D03*
X762D02*
D03*
D12*
X428Y255D02*
D03*
Y361D02*
D03*
D13*
X311Y358D02*
X629D01*
X264Y405D02*
X311Y358D01*
X264Y405D02*
Y470D01*
X164Y165D02*
X357Y358D01*
X464Y65D02*
X564D01*
X664D01*
X764D01*
X424D02*
X464D01*
X364Y125D02*
X424Y65D01*
X365Y1077D02*
X652D01*
X764Y965D01*
Y285D02*
Y965D01*
X737Y258D02*
X764Y285D01*
X364Y125D02*
Y214D01*
X408Y258D01*
X737D01*
X629Y358D02*
X636Y365D01*
D14*
X64Y420D02*
Y425D01*
X636Y365D02*
X648Y377D01*
D15*
X364Y1070D02*
D03*
D16*
X116Y115D02*
D03*
D17*
X264Y470D02*
D03*
X364Y472D02*
D03*
X464Y470D02*
D03*
D18*
X64Y731D02*
D03*
Y325D02*
D03*
D19*
Y831D02*
D03*
Y425D02*
D03*
Y165D02*
D03*
X164Y65D02*
D03*
Y165D02*
D03*
X264Y65D02*
D03*
Y165D02*
D03*
X464Y65D02*
D03*
Y165D02*
D03*
X564Y65D02*
D03*
Y165D02*
D03*
X664Y65D02*
D03*
Y165D02*
D03*
X764Y65D02*
D03*
Y165D02*
D03*
D20*
X64Y65D02*
D03*
D21*
X264Y1061D02*
D03*
X362D02*
D03*
X461D02*
D03*
Y1159D02*
D03*
X362D02*
D03*
X264D02*
D03*
M02*
