G04 Layer_Physical_Order=2*
G04 Layer_Color=16711680*
%FSLAX23Y23*%
%MOIN*%
G70*
G01*
G75*
%ADD11R,0.057X0.106*%
%ADD13C,0.031*%
%ADD14C,0.010*%
%ADD17O,0.071X0.098*%
%ADD18R,0.059X0.059*%
%ADD19C,0.059*%
%ADD20R,0.059X0.059*%
%ADD21C,0.050*%
%ADD22C,0.016*%
%ADD23R,0.551X0.339*%
D11*
X338Y305D02*
D03*
X464D02*
D03*
D13*
X336Y305D02*
Y316D01*
X264Y388D02*
X336Y316D01*
X264Y388D02*
Y470D01*
Y615D01*
X148Y731D02*
X264Y615D01*
X64Y731D02*
X148D01*
X464Y440D02*
Y617D01*
X249Y832D02*
X464Y617D01*
X76Y832D02*
X249D01*
X70Y826D02*
X76Y832D01*
X464Y165D02*
X564D01*
X664D01*
X764D01*
X464D02*
Y440D01*
X55Y722D02*
X75D01*
D14*
X464Y440D02*
X464Y440D01*
D17*
X264Y470D02*
D03*
X364Y472D02*
D03*
X464Y470D02*
D03*
D18*
X64Y731D02*
D03*
Y325D02*
D03*
D19*
Y831D02*
D03*
Y425D02*
D03*
Y165D02*
D03*
X164Y65D02*
D03*
Y165D02*
D03*
X264Y65D02*
D03*
Y165D02*
D03*
X464Y65D02*
D03*
Y165D02*
D03*
X564Y65D02*
D03*
Y165D02*
D03*
X664Y65D02*
D03*
Y165D02*
D03*
X764Y65D02*
D03*
Y165D02*
D03*
D20*
X64Y65D02*
D03*
D21*
X264Y1061D02*
D03*
X362D02*
D03*
X461D02*
D03*
Y1159D02*
D03*
X362D02*
D03*
X264D02*
D03*
D22*
X64Y425D02*
X104D01*
X64Y325D02*
X104D01*
X214Y215D01*
Y115D02*
Y215D01*
X264Y165D02*
Y265D01*
X104Y425D02*
X264Y265D01*
X214Y115D02*
X264Y65D01*
D23*
X364Y1071D02*
D03*
M02*
